<svg version="1.1" xmlns="http://www.w3.org/2000/svg" width="386" height="331">

<path d="M0 0 C54.90250014 -5.43837377 54.90250014 -5.43837377 69.3515625 6.3984375 C75.87744429 12.25400321 81.43294949 19.12183559 86.38769531 26.33789062 C92.64843594 35.30744886 100.66888425 42.78049485 108.40745354 50.45205307 C110.49850582 52.52556724 112.58586731 54.60273313 114.67225647 56.68093872 C120.59892831 62.58326851 126.53138366 68.47976113 132.46801758 74.37207031 C136.1112482 77.98860375 139.74966195 81.60992466 143.38510323 85.23428726 C144.77037651 86.61333917 146.15754596 87.99048901 147.54661369 89.36571884 C149.47822396 91.27822998 151.40370366 93.19671416 153.32788086 95.11669922 C153.90598007 95.68603683 154.48407928 96.25537445 155.07969666 96.84196472 C159 100.77210071 159 100.77210071 159 103 C159.55357178 103.2158374 160.10714355 103.4316748 160.67749023 103.65405273 C163.75725097 105.43884417 165.83602446 107.89389331 168.16015625 110.53515625 C173.09981103 116.01434056 178.20315368 121.29409695 183.43359375 126.49609375 C184.1660733 127.22527008 184.89855286 127.95444641 185.65322876 128.70571899 C187.91267905 130.95164461 190.17465055 133.19499948 192.4375 135.4375 C195.45998329 138.4332441 198.47901812 141.43240469 201.49609375 144.43359375 C202.51647987 145.44153236 202.51647987 145.44153236 203.55747986 146.46983337 C207.26652375 150.15978144 210.72196061 153.92126629 214 158 C212.37791707 161.92728875 209.69386959 164.75048636 206.8215332 167.79956055 C206.29314755 168.36568652 205.76476191 168.9318125 205.22036457 169.5150938 C199.25154534 175.86644006 193.08914828 182.02455206 186.90746117 188.16770363 C184.79757753 190.26456517 182.69106086 192.36476134 180.58528137 194.46574402 C176.12220482 198.91752804 171.65515491 203.3653113 167.1875 207.8125 C161.98536274 212.9909087 156.78493673 218.17101343 151.58870888 223.3553524 C149.52638854 225.41125437 147.46105257 227.46409222 145.39555359 229.51679993 C139.37823253 235.50923642 133.47130395 241.4990038 128 248 C117.84110877 259.92542615 107.42449514 271.59138222 96.6875 283 C95.92734715 283.80841213 95.16719429 284.61682426 94.3840065 285.44973373 C61.05430825 320.64570186 61.05430825 320.64570186 37.42475891 321.80734253 C25.17133777 322.05898653 12.81452104 320.15700602 1 317 C4.5104613 312.81398601 8.11041951 308.84193323 12 305 C13.05402965 303.88298317 14.10247896 302.76068665 15.14672852 301.63452148 C23.12649288 293.03488914 31.28251919 284.6297882 39.58984375 276.34765625 C40.09130543 275.8476347 40.59276711 275.34761314 41.10942459 274.83243942 C44.71520223 271.23885434 48.32592469 267.65025688 51.9375 264.0625 C55.6034651 260.42027006 59.2676607 256.77629026 62.9277668 253.12817192 C64.37769261 251.6846977 65.83059812 250.24427029 67.28367615 248.80397034 C68.58753014 247.50507118 68.58753014 247.50507118 69.91772461 246.17993164 C71.06778236 245.03772911 71.06778236 245.03772911 72.24107361 243.87245178 C74.06367619 242.11133909 74.06367619 242.11133909 75 240 C75.66 240 76.32 240 77 240 C77 239.34 77 238.68 77 238 C77.66 238 78.32 238 79 238 C79.32385429 237.18767914 79.32385429 237.18767914 79.6542511 236.35894775 C81.47006206 233.17603363 83.94101208 230.80525559 86.53198242 228.25683594 C87.09649109 227.69364151 87.66099976 227.13044708 88.24261475 226.55018616 C90.10901197 224.69027612 91.98228381 222.83744649 93.85546875 220.984375 C95.15914486 219.68697407 96.46230398 218.38905346 97.76496887 217.09063721 C101.1989179 213.66999363 104.63837863 210.25495078 108.07946777 206.8414917 C113.57016555 201.3938763 119.05429118 195.9396675 124.53499794 190.48200226 C126.44183303 188.5853053 128.35209392 186.69211111 130.26274109 184.79925537 C135.59099224 179.50770409 140.87348837 174.23797986 145.72775269 168.49957275 C147.36838895 166.56578722 149.12657802 164.77396439 150.9375 163 C151.52402344 162.4225 152.11054688 161.845 152.71484375 161.25 C153.35099609 160.63125 153.35099609 160.63125 154 160 C152.42035813 156.14972794 149.96855605 153.75374465 147.01953125 150.859375 C146.52845383 150.37349915 146.0373764 149.88762329 145.53141785 149.38702393 C143.96314352 147.83649697 142.38836518 146.29280844 140.8125 144.75 C139.25530129 143.22069069 137.6996917 141.68985053 136.1471405 140.15582275 C134.72618497 138.75251463 133.30037088 137.35413111 131.87426758 135.95605469 C129.69814097 133.77002173 127.66715182 131.49117432 125.65307617 129.15527344 C121.92539214 124.85329635 117.95349014 120.84351924 113.90625 116.84375 C113.15589478 116.0971814 112.40553955 115.35061279 111.63244629 114.5814209 C109.2574008 112.21847975 106.87913183 109.8588263 104.5 107.5 C101.36160783 104.38839354 98.22667255 101.27336245 95.09375 98.15625 C94.03250916 97.10745667 94.03250916 97.10745667 92.9498291 96.03747559 C89.69324496 92.79676684 86.53963061 89.52289088 83.54101562 86.04101562 C79.65677038 81.53755482 75.47612767 77.36826594 71.25 73.1875 C70.43305664 72.37434326 69.61611328 71.56118652 68.77441406 70.72338867 C66.18537329 68.14646703 63.59311263 65.57282375 61 63 C57.58037281 59.60712847 54.16417851 56.21085343 50.75 52.8125 C49.59032715 51.66527466 49.59032715 51.66527466 48.40722656 50.49487305 C44.28190823 46.38802763 40.35390454 42.18640886 36.5554657 37.77606201 C34.47670625 35.40249267 32.25961456 33.20121235 30 31 C28.89170197 29.8992388 27.78462404 28.7972484 26.6784668 27.69433594 C26.07822189 27.09731873 25.47797699 26.50030151 24.85954285 25.88519287 C22.17303356 23.21205229 19.4891669 20.53626507 16.80541992 17.86035156 C15.38540039 16.44540645 13.96449148 15.0313534 12.54272461 13.61816406 C10.48839745 11.57588644 8.43724645 9.53046648 6.38671875 7.484375 C5.74619064 6.84900818 5.10566254 6.21364136 4.44572449 5.559021 C2.94471781 4.05820829 1.46940033 2.53177104 0 1 C0 0.67 0 0.34 0 0 Z " fill="#0997D2" transform="translate(5,5)" data-index="1"></path>
<path d="M0 0 C45.37411042 -8.35378267 45.37411042 -8.35378267 62.73487091 3.48787117 C71.15673738 9.72816103 78.47437416 17.18851121 85.5625 24.875 C86.11159782 25.46882225 86.66069565 26.0626445 87.2264328 26.67446136 C107 48.1785817 107 48.1785817 107 52 C108.485 52.495 108.485 52.495 110 53 C111.39355469 54.41479492 111.39355469 54.41479492 112.921875 56.29296875 C117.50169335 61.68514254 122.51020859 66.62264285 127.5267334 71.60189819 C129.287525 73.34974922 131.04501864 75.10085972 132.80175781 76.8527832 C136.53168125 80.57136351 140.26553437 84.28598204 144 88 C148.33273773 92.30901429 152.66378153 96.61970377 156.99060059 100.93466187 C158.70944044 102.6470917 160.43129812 104.35644512 162.15332031 106.06567383 C167.05891991 110.94853786 171.85742844 115.86232553 176.35574341 121.12866211 C179.51648293 124.72591795 182.94319355 128.06488298 186.33984375 131.4375 C187.10680069 132.20304199 187.87375763 132.96858398 188.66395569 133.75732422 C191.08610881 136.17393197 193.51173612 138.58701726 195.9375 141 C197.59202893 142.64950686 199.24632802 144.29924429 200.90039062 145.94921875 C204.93094202 149.96881371 208.96434272 153.98553169 213 158 C208.37270452 168.99161985 195.4670676 178.66969201 187.0703125 187.02734375 C185.86467719 188.23110653 184.65926798 189.43509581 183.45407104 190.63929749 C180.31834789 193.7712501 177.17963471 196.90018854 174.04022217 200.02844238 C170.84268484 203.21568775 167.64802697 206.40581646 164.453125 209.59570312 C158.84276582 215.19655998 153.22994515 220.79493925 147.61526489 226.39146423 C146.75222748 227.25228104 145.88919006 228.11309784 145 229 C144.09394012 229.89977066 143.18788025 230.79954132 142.25436401 231.72657776 C140.46551711 233.53054745 138.86780789 235.31281842 137.3125 237.3125 C136.549375 238.199375 135.78625 239.08625 135 240 C134.34 240 133.68 240 133 240 C132.67 240.99 132.34 241.98 132 243 C131.34 243 130.68 243 130 243 C129.773125 243.556875 129.54625 244.11375 129.3125 244.6875 C127.63169589 247.64891677 125.43480733 249.62132656 123 252 C122.23300781 252.76699219 121.46601563 253.53398437 120.67578125 254.32421875 C103 272 103 272 100.65698242 274.21557617 C98.48184167 276.49504693 96.59535509 278.74922337 94.6809082 281.23950195 C68.39621646 315.42050559 68.39621646 315.42050559 50.43505859 318.87255859 C33.71835369 320.93290725 16.61398791 319.31376513 0 317 C4.16113733 312.03505937 8.4931383 307.37158425 13.09106445 302.8112793 C13.77308426 302.13071976 14.45510406 301.45016022 15.15779114 300.74897766 C16.62658575 299.28396498 18.09653365 297.8201078 19.56752968 296.35730553 C21.89362163 294.04404574 24.21651495 291.7276161 26.53862 289.41035461 C31.4604413 284.49991802 36.38619407 279.59343691 41.3125 274.6875 C47.03947435 268.98411343 52.76483281 263.27912417 58.48601341 257.56992531 C60.77798048 255.28445489 63.07292988 253.00200779 65.36799622 250.71965027 C66.76411355 249.32716323 68.16009193 247.93453686 69.5559082 246.54174805 C70.19743835 245.90538422 70.83896851 245.26902039 71.49993896 244.6133728 C74.63138991 241.59760781 74.63138991 241.59760781 77 238 C77.66 238 78.32 238 79 238 C79.26709715 237.40758577 79.5341943 236.81517155 79.8093853 236.20480537 C81.02064134 233.96177593 82.24682954 232.51139607 84.04983521 230.72311401 C84.9879303 229.78523041 84.9879303 229.78523041 85.94497681 228.82839966 C86.62974091 228.1539682 87.314505 227.47953674 88.02001953 226.78466797 C88.74207581 226.06553223 89.46413208 225.34639648 90.20806885 224.60546875 C91.77515366 223.04599085 93.34454461 221.4888277 94.9159584 219.93371201 C97.39919413 217.47597408 99.87615353 215.01206701 102.35153198 212.54641724 C107.60380309 207.31701182 112.86385146 202.09547202 118.125 196.875 C124.22704132 190.82006799 130.32590054 184.76200376 136.41640854 178.6954689 C138.86318916 176.26170643 141.31589073 173.83401723 143.76882935 171.40646362 C145.25910254 169.92345125 146.74909803 168.44015974 148.23876953 166.95654297 C148.92758209 166.27806305 149.61639465 165.59958313 150.32608032 164.90054321 C151.25571594 163.97111908 151.25571594 163.97111908 152.20413208 163.0229187 C153.01878779 162.21492482 153.01878779 162.21492482 153.8499012 161.39060783 C155.21244044 160.04389767 155.21244044 160.04389767 155 158 C153.67487122 156.6962889 153.67487122 156.6962889 151.9375 155.375 C149.26078166 153.17455079 146.95636287 150.90778375 144.72119141 148.26245117 C141.15787891 144.13334123 137.39390079 140.26575301 133.5234375 136.42578125 C132.81189514 135.71569916 132.10035278 135.00561707 131.36724854 134.27401733 C129.83573478 132.7462827 128.30306785 131.21970338 126.76934814 129.69418335 C124.33649465 127.27419832 121.90687051 124.85101157 119.47802734 122.42700195 C114.32149396 117.28184645 109.16104213 112.14063231 104 107 C98.01516997 101.03883753 92.03199405 95.07603428 86.05303955 89.10897827 C83.6694133 86.73179328 81.2827752 84.35766133 78.89599609 81.98364258 C77.42270231 80.51398425 75.94955038 79.04418368 74.4765625 77.57421875 C73.82077209 76.92359467 73.16498169 76.27297058 72.48931885 75.60263062 C68.72067383 71.83441262 65.16870518 67.94191985 61.68494987 63.90981674 C59.13945783 61.02461322 56.43435703 58.31816067 53.69750977 55.61572266 C53.11127335 55.0325528 52.52503693 54.44938293 51.92103577 53.84854126 C50.66450539 52.59909503 49.40684429 51.35078505 48.14813423 50.1035347 C46.15789006 48.13084188 44.17134895 46.15448712 42.18577576 44.17709351 C36.54585145 38.56150055 30.90013 32.9517613 25.25024414 27.34619141 C21.78207729 23.90472255 18.31872888 20.45846613 14.85835075 17.00916672 C13.54006369 15.69710018 12.21988071 14.38693576 10.89779854 13.07869339 C9.05958558 11.25958106 7.22750864 9.43449827 5.39672852 7.60791016 C4.84668152 7.06662476 4.29663452 6.52533936 3.72991943 5.96765137 C0 2.22789947 0 2.22789947 0 0 Z " fill="#0996D2" transform="translate(93,5)" data-index="2" style="opacity: 1;"></path>
<path d="M0 0 C1.18178833 0.00131424 1.18178833 0.00131424 2.38745117 0.00265503 C33.91892601 0.11779447 64.63251744 8.02697174 90.6875 26.375 C91.64914062 27.05175781 92.61078125 27.72851562 93.6015625 28.42578125 C101.12862392 33.90089182 107.99783108 39.917489 114.6875 46.375 C115.244375 46.90778564 115.80125 47.44057129 116.375 47.98950195 C127.74252429 59.07315181 136.52561366 72.27269214 143.6875 86.375 C144.00412598 86.99052734 144.32075195 87.60605469 144.64697266 88.24023438 C149.73437142 98.23969597 153.65509879 108.57582504 156.6875 119.375 C156.90067871 120.13393555 157.11385742 120.89287109 157.33349609 121.67480469 C163.3871492 144.4588155 162.79235763 171.4440013 157.6875 194.375 C157.4706958 195.37104248 157.4706958 195.37104248 157.24951172 196.38720703 C150.789008 225.11248104 136.48023791 250.88968123 116.07324219 271.94238281 C114.82999382 273.2276861 113.60514896 274.53073077 112.3828125 275.8359375 C86.09908002 303.27499888 45.85114665 320.1959448 8.06640625 321.72265625 C-10.26245692 322.11588418 -28.67563299 320.62140981 -46.3125 315.375 C-43.67544585 309.16755231 -38.72613319 304.23708323 -33.3125 300.375 C-29.01047482 299.65443747 -25.51129251 300.36459538 -21.3125 301.375 C13.44666772 307.75933693 51.33539651 297.52699154 80.40917969 278.23242188 C87.65838666 273.18911394 94.27357538 267.42847266 100.6875 261.375 C101.43644531 260.69050781 102.18539062 260.00601562 102.95703125 259.30078125 C125.263058 238.16669986 137.72716442 207.328217 141.6875 177.375 C141.87183594 176.11945313 142.05617188 174.86390625 142.24609375 173.5703125 C144.04196972 158.83149522 143.26689332 143.7540221 139.6875 129.375 C139.39746094 128.1271875 139.10742188 126.879375 138.80859375 125.59375 C132.41596178 99.70225316 119.34758794 77.29939513 100.6875 58.375 C99.85992187 57.53453125 99.03234375 56.6940625 98.1796875 55.828125 C70.66471097 29.40701604 33.93536541 17.86732077 -3.5625 18.140625 C-11.04912935 18.30595826 -18.2404449 19.31175883 -25.58203125 20.71875 C-26.81308594 20.9353125 -28.04414063 21.151875 -29.3125 21.375 C-30.17617187 21.54 -31.03984375 21.705 -31.9296875 21.875 C-35.95606689 21.03012039 -38.02958617 17.90876441 -40.625 14.875 C-41.17478516 14.25496094 -41.72457031 13.63492187 -42.29101562 12.99609375 C-43.64397289 11.4666638 -44.97993049 9.92222585 -46.3125 8.375 C-45.3125 6.375 -45.3125 6.375 -42.390625 5.375 C-40.49570313 4.88 -40.49570313 4.88 -38.5625 4.375 C-37.33015625 4.045 -36.0978125 3.715 -34.828125 3.375 C-23.21431688 0.67112896 -11.86719181 -0.03234632 0 0 Z " fill="#58616A" transform="translate(214.3125,2.625)" data-index="3" style="opacity: 1;"></path>

<path d="M0 0 C1.32 0 2.64 0 4 0 C5.921875 1.96875 5.921875 1.96875 7.75 4.5 C8.67039062 5.75296875 8.67039062 5.75296875 9.609375 7.03125 C10.06828125 7.6809375 10.5271875 8.330625 11 9 C10.34 9.66 9.68 10.32 9 11 C7.49403892 9.54782324 5.99537896 8.08807139 4.5 6.625 C3.6646875 5.81289062 2.829375 5.00078125 1.96875 4.1640625 C0 2 0 2 0 0 Z " fill="#169AD1" transform="translate(94,6)" data-index="5" style="visibility: hidden;"></path>

<path d="M0 0 C0.99 0.33 1.98 0.66 3 1 C1.35 2.98 -0.3 4.96 -2 7 C-2.66 6.67 -3.32 6.34 -4 6 C-2.84826645 3.53199953 -1.95216435 1.95216435 0 0 Z " fill="#1A97D0" transform="translate(88,293)" data-index="7" style="visibility: hidden;"></path>

<path d="M0 0 C0 3 0 3 -2.5 5.6875 C-3.325 6.450625 -4.15 7.21375 -5 8 C-5.66 7.67 -6.32 7.34 -7 7 C-4.69 4.69 -2.38 2.38 0 0 Z " fill="#68757B" transform="translate(179,305)" data-index="9" style="visibility: hidden;"></path>
</svg>